<?xml version="1.0" encoding="UTF-8"?>
<svg id="Layer_1" data-name="Layer 1" xmlns="http://www.w3.org/2000/svg" viewBox="0 0 1265 267.84">
  <defs>
    <style>
      .cls-1 {
        fill: #231f20;
      }
    </style>
  </defs>
  <polygon class="cls-1" points="214.7 0 172.18 42.52 42.51 42.52 42.51 172.19 0 214.7 0 0 214.7 0"/>
  <polygon class="cls-1" points="635.06 52.11 635.06 266.82 420.35 266.82 462.87 224.3 592.54 224.3 592.54 94.63 635.06 52.11"/>
  <polygon class="cls-1" points="635.06 0 635.06 30.06 613.8 51.32 440.82 224.3 419.56 245.56 398.3 266.82 368.24 266.82 368.24 236.75 604.99 0 635.06 0"/>
  <g>
    <polygon class="cls-1" points="299.43 0 87.74 212.44 27.75 212.44 107.98 131.85 50.45 78.29 50.44 49.69 81.87 49.62 138 101.7 239.38 0 299.43 0"/>
    <path class="cls-1" d="M318.52,0L104.66,212.44h60.33l31.93-31.72h104.48v31.72h42.52V0h-25.4ZM301.4,138.21h-61.67l61.67-61.27v61.27Z"/>
    <path class="cls-1" d="M653.22,38.63l-8.63,7.89v221.32h42.52v-31.72h104.48l31.93,31.72h60.33l-230.63-229.21ZM687.11,193.61v-61.27l61.67,61.27h-61.67Z"/>
    <polygon class="cls-1" points="510.76 0 510.76 72.85 451.83 131.78 395.95 76.68 395.95 187.66 353.43 230.18 353.43 0 378.75 0 468.24 88.26 468.24 0 510.76 0"/>
  </g>
  <polygon class="cls-1" points="968.73 41.55 968.73 268.05 926.21 268.05 926.21 110.41 839.62 202.57 700.69 64.49 699.47 41.55 732.44 41.55 838.25 141.94 936.33 41.55 968.73 41.55"/>
  <polygon class="cls-1" points="1265 268.97 1112.85 267.73 987.81 267.73 987.81 41.63 1048.66 41.63 1074.54 84.15 1030.33 84.15 1030.33 118.93 1096.3 118.93 1124.44 161.45 1030.33 161.45 1030.33 225.21 1113.11 225.21 1185.33 225.8 1127.14 138.08 1104.41 103.81 1063.16 41.63 1198.64 41.63 1244.03 84.15 1142.39 84.15 1265 268.97"/>
</svg>